/* XPM */
static char *_16e9a49f8a14a2fc1e609f4ba2ed3bfAEjeta7jVkd75aKg[] = {
/* columns rows colors chars-per-pixel */
"32 32 2 1 ",
"  c #98A8A4",
". c #0B4151",
/* pixels */
"          ....                  ",
"     .............  ..          ",
"   .....................        ",
"  ........    ...........       ",
"  ..                   ...      ",
" ...                   ...      ",
" ...                   ...      ",
"  ..                   ...      ",
"  ...  ....  .        ...       ",
"  .............   .......       ",
"   .............  .......       ",
"   ..        ...  ..  .......   ",
"   ..        ..   ..  ........  ",
"   ..       ...   ... ........  ",
"   ..  ........   .......   ... ",
"   ..  ........   .......   ... ",
"   ..  ........   .......   ... ",
"   ..  ........   .......   ... ",
"   ..  ........   .......   ..  ",
"   ..  .........  .......   ..  ",
"   ..  ..................  ...  ",
"   ..  .................. ...   ",
"   ..  ......................   ",
"   ..  .....................    ",
"   ..  ...................      ",
"   ..  ..................       ",
"   ..   .................       ",
"   ..   .................       ",
"   ..   ................        ",
"   .... ................        ",
"    ...................         ",
"     .................          "
};
