/* XPM */
static char *_885fd37cbbc4148abe8c5ba91a33bc3qwaG8ytiaCEh35kW[] = {
/* columns rows colors chars-per-pixel */
"32 32 2 1 ",
"  c #e20074",
". c white",
/* pixels */
"     .......................... ",
"     .......................... ",
"     ...............    ....... ",
"     ..............     ....... ",
"     ..............     ....... ",
"     ...............   ........ ",
"     ................ ......... ",
"     .....             ........ ",
"     ....               ....... ",
"     ....   ...          ...... ",
"     ...   ....           ..... ",
"     ...   ...        .         ",
"     ..   ....       ...        ",
"     ... .....       ....       ",
"     ........        .......... ",
"     ........       ........... ",
"     ........        .......... ",
"     ........        .......... ",
"     .......    .     ......... ",
"     .......    ..     ........ ",
"   .........   ....    ........ ",
" ..            .....    ....... ",
" .             .....     ...... ",
" .            .......    ...... ",
" .....................    ..... ",
"     ..................   ..... ",
"     ...................   .... ",
"     ....................  .... ",
"    ....................   .... ",
"   ..................     ..... ",
"  ..................     .....  ",
" ..................    .....    "
};
