/* XPM */
static char *_054c15db872494ed2eb949cc539328eeelonYcuP2AcdStt[] = {
/* columns rows colors chars-per-pixel */
"32 32 2 1 ",
"  c #98A8A4",
". c #0B4151",
/* pixels */
"                       ...      ",
"                      .....     ",
"                     ......     ",
"                     ......     ",
"                      .....     ",
"            ......     ...      ",
"          ...........           ",
"         .............          ",
"        .....    ......         ",
"       ....     ........        ",
"        ..      ........        ",
"               .........        ",
"              ....... ...       ",
"              ......  ........  ",
"             .......  ......... ",
"             ......    ........ ",
"            ......              ",
"             ......             ",
"             .......            ",
"           .   ......           ",
"          ...   .......         ",
"  ............    .....         ",
" ............      ....         ",
" ...........       ....         ",
"  .........       ....          ",
"                  ....          ",
"                  ....          ",
"                 ....           ",
"                 ....           ",
"                ....            ",
"                ....            ",
"                 ..             "
};
