/* XPM */
static char *_1a46be776a34196e55aa9141105255a4MxPUIpfax0qZ8sP[] = {
/* columns rows colors chars-per-pixel */
"32 32 2 1 ",
"  c #F0F0F8",
". c #7B002C",
/* pixels */
"  ......    ........    ......  ",
" .......    ........    ....... ",
"........    ........    ........",
"........    ........    ........",
".....                      .....",
"....                        ....",
"....                        ....",
"....                        ....",
"                                ",
"                                ",
"                                ",
"                                ",
"....                        ....",
"....                        ....",
"....                        ....",
"....                        ....",
"....                        ....",
"....                        ....",
"....                        ....",
"....                        ....",
"                                ",
"                                ",
"                                ",
"                                ",
"....                        ....",
"....                        ....",
"....                        ....",
".....                      .....",
"........    ........    ........",
"........    ........    ........",
" .......    ........    ....... ",
"  ......    ........    ......  "
};
